<?xml version="1.0" encoding="utf-8"?>
<!-- Generator: Adobe Illustrator 27.9.0, SVG Export Plug-In . SVG Version: 6.00 Build 0)  -->
<svg version="1.1" id="Layer_1" xmlns="http://www.w3.org/2000/svg" xmlns:xlink="http://www.w3.org/1999/xlink" x="0px" y="0px"
	 viewBox="0 0 595.28 841.89" style="enable-background:new 0 0 595.28 841.89;" xml:space="preserve">
<style type="text/css">
	.st0{fill:#BCC5CE;stroke:#BCC5CE;stroke-width:4;stroke-miterlimit:10;}
	.st1{fill:#BCC5CE;}
	.st2{fill:#BCC5CE;stroke:#BCC5CE;stroke-miterlimit:10;}
	.st3{fill:none;}
	.st4{font-family:'AmericanTypewriterITCPro-Med';}
	.st5{font-size:112.6047px;}
	.st6{font-size:67.0836px;}
</style>
<g>
	<g>
		<line class="st0" x1="481.84" y1="355.31" x2="405.62" y2="379.42"/>
		<path class="st1" d="M534.46,322.06l-146.28,47.21c-5.13,1.65-10.63-1.16-12.28-6.29l-14.39-44.6
			c-1.65-5.13,1.16-10.63,6.29-12.28l146.28-47.21c5.13-1.65,10.63,1.16,12.28,6.29l14.39,44.6
			C542.41,314.91,539.59,320.4,534.46,322.06z"/>
		
			<rect x="108.51" y="361.13" transform="matrix(0.9517 -0.3071 0.3071 0.9517 -105.8826 93.0988)" class="st1" width="268.73" height="43.71"/>
		<path class="st1" d="M535.46,342.15l-48.52,15.66c-1.92,0.62-3.97-0.43-4.59-2.35l-3.73-11.55c-0.62-1.92,0.43-3.97,2.35-4.59
			l48.52-15.66c1.92-0.62,3.97,0.43,4.59,2.35l3.73,11.55C538.43,339.48,537.38,341.53,535.46,342.15z"/>
		
			<rect x="392.7" y="368.49" transform="matrix(0.9517 -0.3071 0.3071 0.9517 -96.2058 141.7844)" class="st1" width="19.43" height="16.19"/>
		<path class="st2" d="M20.36,452.62c0,0,47.08-7.07,59.11-33.06c0,0,11.47,14.16,31.24-10.08l9.94,30.81c0,0-10.1-6.1-30.77,14.18
			C89.88,454.47,90.19,439.81,20.36,452.62z"/>
	</g>
	<rect x="107.27" y="316.47" class="st3" width="585.73" height="166.48"/>
	<text transform="matrix(1 0 0 1 107.2646 394.502)" class="st4 st5">WRITE</text>
	<rect x="230.24" y="251.45" class="st3" width="278.28" height="146.45"/>
	<text transform="matrix(1 0 0 1 230.2441 297.9414)" class="st4 st6">THEE</text>
	<rect x="183.88" y="418.26" class="st3" width="624.12" height="276.72"/>
	<text transform="matrix(1 0 0 1 183.8828 464.752)" class="st4 st6">CROWD</text>
</g>
</svg>
