<?xml version="1.0" encoding="utf-8"?>
<!-- Generator: Adobe Illustrator 27.9.0, SVG Export Plug-In . SVG Version: 6.00 Build 0)  -->
<svg version="1.1" id="Layer_1" xmlns="http://www.w3.org/2000/svg" xmlns:xlink="http://www.w3.org/1999/xlink" x="0px" y="0px"
	 viewBox="0 0 595.28 841.89" style="enable-background:new 0 0 595.28 841.89;" xml:space="preserve">
<style type="text/css">
	.st0{fill:#FFFFFF;}
	.st1{fill:#FFFFFF;stroke:#FFFFFF;stroke-width:4;stroke-miterlimit:10;}
</style>
<g>
	<g>
		<path class="st0" d="M72.71,184.31h136.52c5.39,0,9.76,4.37,9.76,9.76v40.28c0,5.39-4.37,9.76-9.76,9.76H72.71
			c-5.39,0-9.76-4.37-9.76-9.76v-40.28C62.95,188.68,67.32,184.31,72.71,184.31z"/>
		<rect x="217.53" y="193.07" class="st0" width="242.07" height="39.37"/>
		<path class="st0" d="M548.61,216.22c0,0-42.32-8.67-59.82,14.92c0,0-5.92-19.05-29.57,0v-36.29c0,0,6.97,9.98,30.3-4.54
			C489.52,190.31,485.2,205.84,548.61,216.22z"/>
		<g>
			<path class="st0" d="M73.89,260.87h45.2c2.01,0,3.65-1.63,3.65-3.65v-10.21c0-2.01-1.63-3.65-3.65-3.65h-45.2
				c-2.01,0-3.65,1.63-3.65,3.65v10.21C70.24,259.24,71.87,260.87,73.89,260.87z"/>
			<path class="st0" d="M194.61,264.52h9.37c3.45,0,6.25-2.8,6.25-6.25v-5.73c0-3.45-2.8-6.25-6.25-6.25h-9.37
				c-3.45,0-6.25,2.8-6.25,6.25v5.73C188.36,261.72,191.16,264.52,194.61,264.52z"/>
			<line class="st0" x1="191.28" y1="257.96" x2="96.49" y2="256.5"/>
		</g>
	</g>
	<line class="st1" x1="121.36" y1="255.93" x2="194.28" y2="257.39"/>
	<g>
		<path class="st0" d="M83.71,385.31h136.52c5.39,0,9.76,4.37,9.76,9.76v40.28c0,5.39-4.37,9.76-9.76,9.76H83.71
			c-5.39,0-9.76-4.37-9.76-9.76v-40.28C73.95,389.68,78.32,385.31,83.71,385.31z"/>
		<rect x="228.53" y="394.07" class="st0" width="242.07" height="39.37"/>
		<path class="st0" d="M559.61,417.22c0,0-42.32-8.67-59.82,14.92c0,0-5.92-19.05-29.57,0v-36.29c0,0,6.97,9.98,30.3-4.54
			C500.52,391.31,496.2,406.84,559.61,417.22z"/>
		<g>
			<path class="st0" d="M84.89,461.87h45.2c2.01,0,3.65-1.63,3.65-3.65v-10.21c0-2.01-1.63-3.65-3.65-3.65h-45.2
				c-2.01,0-3.65,1.63-3.65,3.65v10.21C81.24,460.24,82.87,461.87,84.89,461.87z"/>
			<path class="st0" d="M205.61,465.52h9.37c3.45,0,6.25-2.8,6.25-6.25v-5.73c0-3.45-2.8-6.25-6.25-6.25h-9.37
				c-3.45,0-6.25,2.8-6.25,6.25v5.73C199.36,462.72,202.16,465.52,205.61,465.52z"/>
			<line class="st0" x1="202.28" y1="458.96" x2="107.49" y2="457.5"/>
		</g>
	</g>
	<line class="st1" x1="127.36" y1="459.93" x2="200.28" y2="461.39"/>
	<g>
		<g>
			<path class="st0" d="M79.71,283.31h136.52c5.39,0,9.76,4.37,9.76,9.76v40.28c0,5.39-4.37,9.76-9.76,9.76H79.71
				c-5.39,0-9.76-4.37-9.76-9.76v-40.28C69.95,287.68,74.32,283.31,79.71,283.31z"/>
			<rect x="224.53" y="292.07" class="st0" width="242.07" height="39.37"/>
			<path class="st0" d="M555.61,315.22c0,0-42.32-8.67-59.82,14.92c0,0-5.92-19.05-29.57,0v-36.29c0,0,6.97,9.98,30.3-4.54
				C496.52,289.31,492.2,304.84,555.61,315.22z"/>
			<g>
				<path class="st0" d="M80.89,359.87h45.2c2.01,0,3.65-1.63,3.65-3.65v-10.21c0-2.01-1.63-3.65-3.65-3.65h-45.2
					c-2.01,0-3.65,1.63-3.65,3.65v10.21C77.24,358.24,78.87,359.87,80.89,359.87z"/>
				<path class="st0" d="M201.61,363.52h9.37c3.45,0,6.25-2.8,6.25-6.25v-5.73c0-3.45-2.8-6.25-6.25-6.25h-9.37
					c-3.45,0-6.25,2.8-6.25,6.25v5.73C195.36,360.72,198.16,363.52,201.61,363.52z"/>
				<line class="st0" x1="198.28" y1="356.96" x2="103.49" y2="355.5"/>
			</g>
		</g>
		<line class="st1" x1="129.36" y1="354.93" x2="202.28" y2="356.39"/>
	</g>
</g>
</svg>
