<?xml version="1.0" encoding="utf-8"?>
<!-- Generator: Adobe Illustrator 27.9.0, SVG Export Plug-In . SVG Version: 6.00 Build 0)  -->
<svg version="1.1" id="Layer_1" xmlns="http://www.w3.org/2000/svg" xmlns:xlink="http://www.w3.org/1999/xlink" x="0px" y="0px"
	 viewBox="0 0 595.28 841.89" style="enable-background:new 0 0 595.28 841.89;" xml:space="preserve">
<style type="text/css">
	.st0{fill:#DAD9D9;}
	.st1{fill:#FFFFFF;}
</style>
<g>
	<circle cx="298" cy="420.88" r="74"/>
	<path class="st0" d="M324.2,443.06h-52.64c-11.24,0-20.36-9.12-20.36-20.36v-16.88c0-11.24,9.12-20.36,20.36-20.36h52.64
		c11.24,0,20.36,9.12,20.36,20.36v16.88C344.55,433.94,335.44,443.06,324.2,443.06z"/>
	<polygon class="st0" points="288.73,443.06 281.98,458.95 316.15,458.95 308.78,443.06 	"/>
	<path class="st1" d="M337.38,443.06h-79.01c-3.96,0-7.17-3.21-7.17-7.17l0,0c0-3.96,3.21-7.17,7.17-7.17h79.01
		c3.96,0,7.17,3.21,7.17,7.17l0,0C344.55,439.85,341.34,443.06,337.38,443.06z"/>
	<ellipse class="st1" cx="298.94" cy="460.89" rx="32.28" ry="4.47"/>
</g>
</svg>
