<?xml version="1.0" encoding="utf-8"?>
<!-- Generator: Adobe Illustrator 27.9.0, SVG Export Plug-In . SVG Version: 6.00 Build 0)  -->
<svg version="1.1" id="Layer_1" xmlns="http://www.w3.org/2000/svg" xmlns:xlink="http://www.w3.org/1999/xlink" x="0px" y="0px"
	 viewBox="0 0 595.28 841.89" style="enable-background:new 0 0 595.28 841.89;" xml:space="preserve">
<style type="text/css">
	.st0{fill:#DAD9D9;}
	.st1{stroke:#000000;stroke-miterlimit:10;}
	.st2{fill:#FFFFFF;}
	.st3{fill:none;stroke:#000000;stroke-miterlimit:10;}
</style>
<g>
	<circle cx="298" cy="420.88" r="76.5"/>
	<path class="st0" d="M296.7,366.55c0,0,13.18-0.03,17.02,1.89c0,0,5.75-8.63,16.78-2.88s-1.02,19.17-1.02,19.17
		s1.98,12.46-14.32,29.72c0,0,41.22,16.78,11.02,44.58c0,0,6.5,18.72-9.21,19.43c-7.57,0.7-15.23-1.69-18.11-7.92h-4.04
		c-2.88,6.23-10.54,8.63-18.11,7.92c-15.71-0.7-9.21-19.43-9.21-19.43c-30.2-27.8,11.02-44.58,11.02-44.58
		c-16.3-17.25-14.32-29.72-14.32-29.72s-12.05-13.42-1.02-19.17s16.78,2.88,16.78,2.88c3.83-1.92,17.02-1.89,17.02-1.89"/>
	<circle class="st1" cx="285.71" cy="387.13" r="3.36"/>
	<circle class="st1" cx="309.19" cy="388.09" r="3.36"/>
	<ellipse class="st2" cx="296.73" cy="403.66" rx="13.42" ry="9.83"/>
	<ellipse class="st1" cx="296.97" cy="398.39" rx="6.47" ry="3.59"/>
	<g>
		<path class="st3" d="M296.87,409.2c0,0-1.78,3.72-7.23,1.86"/>
		<path class="st3" d="M296.87,402.01c0,0,0.15,6.99,0.06,7.08c0,0,1.78,3.72,7.23,1.86"/>
	</g>
	<path class="st3" d="M283.31,416.83c0,0-11.02,13.91-9.59,20.62c1.44,6.71,7.19,3.36,7.19,8.63s0,15.82-13.42,12.94"/>
	<path class="st3" d="M310.15,416.83c0,0,11.02,13.91,9.59,20.62c-1.44,6.71-7.19,3.36-7.19,8.63s0,15.82,13.42,12.94"/>
	<path class="st3" d="M279.83,454.35c0,0,18.33,2.28,14.98,16.18"/>
	<path class="st3" d="M313.44,454.35c0,0-18.33,2.28-14.98,16.18"/>
	<g>
		<polygon class="st2" points="311.5,432.47 311.5,416.38 287.5,429.47 		"/>
		<polygon class="st2" points="281.5,432.47 281.5,416.38 305.5,429.47 		"/>
	</g>
</g>
</svg>
