<?xml version="1.0" encoding="utf-8"?>
<!-- Generator: Adobe Illustrator 27.9.0, SVG Export Plug-In . SVG Version: 6.00 Build 0)  -->
<svg version="1.1" id="Layer_1" xmlns="http://www.w3.org/2000/svg" xmlns:xlink="http://www.w3.org/1999/xlink" x="0px" y="0px"
	 viewBox="0 0 595.28 841.89" style="enable-background:new 0 0 595.28 841.89;" xml:space="preserve">
<style type="text/css">
	.st0{fill:#DAD9D9;}
	.st1{fill:#FFFFFF;}
</style>
<g>
	<g>
		<circle cx="298" cy="420.88" r="74.5"/>
		<polygon class="st0" points="296.31,367.88 307.1,389.73 331.21,393.23 313.76,410.24 317.88,434.26 296.31,422.92 274.75,434.26 
			278.86,410.24 261.42,393.23 285.53,389.73 		"/>
		<polygon class="st1" points="296.23,381.52 303.04,395.31 318.27,397.53 307.25,408.26 309.85,423.42 296.23,416.27 
			282.62,423.42 285.22,408.26 274.2,397.53 289.43,395.31 		"/>
		<polygon class="st1" points="294.1,480.41 295.64,483.53 299.08,484.03 296.59,486.46 297.18,489.88 294.1,488.27 291.03,489.88 
			291.61,486.46 289.12,484.03 292.56,483.53 		"/>
		<polygon class="st0" points="324.37,436.08 325.91,439.2 329.35,439.7 326.86,442.13 327.45,445.55 324.37,443.94 321.29,445.55 
			321.88,442.13 319.39,439.7 322.83,439.2 		"/>
		<polygon class="st1" points="254.03,384.93 255.57,388.05 259.02,388.55 256.52,390.97 257.11,394.4 254.03,392.78 250.96,394.4 
			251.54,390.97 249.05,388.55 252.5,388.05 		"/>
		<polygon class="st0" points="269.38,438.21 270.92,441.33 274.36,441.83 271.87,444.26 272.46,447.68 269.38,446.07 266.3,447.68 
			266.89,444.26 264.4,441.83 267.84,441.33 		"/>
		<polygon class="st1" points="340.14,387.06 341.68,390.18 345.12,390.68 342.63,393.11 343.22,396.53 340.14,394.92 
			337.06,396.53 337.65,393.11 335.16,390.68 338.6,390.18 		"/>
		<rect x="292.05" y="427.59" class="st0" width="6.82" height="50.72"/>
	</g>
	<polygon class="st0" points="295.38,356.24 296.92,359.36 300.36,359.86 297.87,362.28 298.46,365.71 295.38,364.09 292.3,365.71 
		292.89,362.28 290.4,359.86 293.84,359.36 	"/>
</g>
</svg>
