<?xml version="1.0" encoding="utf-8"?>
<!-- Generator: Adobe Illustrator 27.9.0, SVG Export Plug-In . SVG Version: 6.00 Build 0)  -->
<svg version="1.1" id="Layer_1" xmlns="http://www.w3.org/2000/svg" xmlns:xlink="http://www.w3.org/1999/xlink" x="0px" y="0px"
	 viewBox="0 0 595.28 841.89" style="enable-background:new 0 0 595.28 841.89;" xml:space="preserve">
<style type="text/css">
	.st0{fill:#FFFFFF;}
	.st1{fill:#DAD9D9;}
	.st2{fill:none;stroke:#000000;stroke-miterlimit:10;}
</style>
<g>
	<circle cx="298" cy="420.88" r="70.5"/>
	<g>
		<path class="st0" d="M297.45,461.33c6.4,5.49,10.06-1.83,10.06-1.83s1.83,4.57,6.4,1.83c6.4-4.57-3.66-19.21,2.74-21.96
			c22.87,0.91,8.23-15.55,8.23-15.55l3.91-2.05c18.07-34.73-29.41-40.11-29.41-40.11l-2.11-0.34c0,0-47.62,4.04-30.53,39.27
			l3.28,3.24c0,0-14.64,16.47,8.23,15.55c6.4,2.74-3.66,17.38,2.74,21.96c4.57,2.74,6.4-1.83,6.4-1.83s3.66,7.32,10.06,1.83"/>
		<path class="st1" d="M284.57,412.31c-9.12-1.95-11.64,0.26-12.69,2.26s0.61,9.52,8.37,10.8c7.76,1.28,12.35-0.14,12.35-0.14
			S299.27,415.46,284.57,412.31z"/>
		<path class="st1" d="M310.74,412.26c9.13-1.88,11.64,0.35,12.68,2.35s-0.68,9.52-8.45,10.74c-7.77,1.22-12.34-0.23-12.34-0.23
			S296.01,415.29,310.74,412.26z"/>
		<path class="st1" d="M297.11,432.15c0,0-12.49,5-7.49,13.32c3.33,2.5,6.21-2.5,6.21-2.5s2.33,0,2.22,0c0,0,2.88,5,6.21,2.5
			c5-8.33-7.49-13.32-7.49-13.32"/>
		<path class="st2" d="M296.1,380.31"/>
	</g>
</g>
</svg>
