<?xml version="1.0" encoding="utf-8"?>
<!-- Generator: Adobe Illustrator 27.9.0, SVG Export Plug-In . SVG Version: 6.00 Build 0)  -->
<svg version="1.1" id="Layer_1" xmlns="http://www.w3.org/2000/svg" xmlns:xlink="http://www.w3.org/1999/xlink" x="0px" y="0px"
	 viewBox="0 0 595.28 841.89" style="enable-background:new 0 0 595.28 841.89;" xml:space="preserve">
<style type="text/css">
	.st0{fill:#DAD9D9;}
	.st1{fill:#FFFFFF;}
</style>
<g>
	<circle cx="298" cy="420.88" r="77.5"/>
	<path class="st0" d="M281.85,402.97l0.24,10.31c0,0,4.8-3.53,11.35,9.1l8.57-3.07c-5.52-13.11,0.26-14.55,0.26-14.55l-7.78-6.78
		L281.85,402.97z"/>
	<circle class="st0" cx="283.11" cy="388.31" r="25.5"/>
	
		<rect x="305.89" y="415.63" transform="matrix(0.9084 -0.4181 0.4181 0.9084 -158.6872 170.6965)" class="st0" width="8.58" height="63.68"/>
	<circle cx="283.11" cy="388.31" r="21.21"/>
	<circle class="st1" cx="325.07" cy="479.8" r="3.03"/>
	
		<ellipse transform="matrix(0.9444 -0.3287 0.3287 0.9444 -121.9304 121.4408)" class="st1" cx="298.18" cy="421.32" rx="6.98" ry="1.3"/>
	
		<ellipse transform="matrix(0.9444 -0.3287 0.3287 0.9444 -122.8702 121.9412)" class="st1" cx="299.19" cy="424.35" rx="6.98" ry="1.3"/>
	
		<ellipse transform="matrix(0.9444 -0.3287 0.3287 0.9444 -123.6159 122.5794)" class="st1" cx="300.71" cy="426.87" rx="6.98" ry="1.3"/>
	
		<ellipse transform="matrix(0.9444 -0.3287 0.3287 0.9444 -138.6187 132.7983)" class="st1" cx="323.43" cy="476.35" rx="6.98" ry="1.3"/>
	<g>
		<circle class="st1" cx="286.17" cy="400.9" r="3.63"/>
		<path class="st1" d="M273.34,374.24l1.68,4.82c0,0,5.38-4.44,7.34,1.17c0,0-0.03,4.28-5.77,3.33l4.61,13.23l5.39-1.88l-3.43-9.84
			c0,0,5.03-0.82,4.04-6.99C286.21,371.9,282.38,371.28,273.34,374.24z"/>
	</g>
</g>
</svg>
