<?xml version="1.0" encoding="utf-8"?>
<!-- Generator: Adobe Illustrator 27.9.0, SVG Export Plug-In . SVG Version: 6.00 Build 0)  -->
<svg version="1.1" id="Layer_1" xmlns="http://www.w3.org/2000/svg" xmlns:xlink="http://www.w3.org/1999/xlink" x="0px" y="0px"
	 viewBox="0 0 595.28 841.89" style="enable-background:new 0 0 595.28 841.89;" xml:space="preserve">
<style type="text/css">
	.st0{fill:#FFFFFF;}
	.st1{fill:#FFFFFF;stroke:#000000;stroke-miterlimit:10;}
</style>
<g>
	<circle cx="298" cy="420.88" r="69.5"/>
	<g>
		<g>
			<polygon class="st0" points="287.01,460.38 308.74,460.38 304.24,471.07 292.29,471.07 			"/>
			<g>
				<ellipse class="st0" cx="298" cy="416.42" rx="22.28" ry="22.57"/>
				<path class="st0" d="M309.41,436.02c-6.59,5.94-4.22,15.44-4.22,15.44h-14.02c0,0,2.38-9.5-4.22-15.44"/>
			</g>
			<ellipse class="st0" cx="298" cy="457.7" rx="13.37" ry="2.67"/>
			<ellipse class="st0" cx="298" cy="452.36" rx="13.37" ry="2.67"/>
			<path class="st1" d="M291.71,441.87c5.15-6.48,5.27-15.88,2.35-23.63c-0.74-1.97-2.11-4.18-4.22-4.14
				c-0.49,0.92-0.03,2.14,0.8,2.78c0.83,0.64,1.92,0.82,2.97,0.88c1.38,0.07,2.87-0.08,3.95-0.95c1.08-0.87,1.48-2.66,0.52-3.65
				c-1.31,0.94-1.64,3-0.67,4.3c0.75,1.01,2.09,1.47,3.34,1.34s2.4-0.76,3.35-1.59c0.47-0.41,0.92-0.91,1.02-1.53
				c0.1-0.62-0.27-1.35-0.9-1.41c-0.71-0.08-1.21,0.67-1.51,1.32c-2.41,5.25-3.13,11.25-2.05,16.92c0.57,2.99,1.77,6.07,4.24,7.86"
				/>
			<path class="st0" d="M307.8,436.62"/>
		</g>
		
			<ellipse transform="matrix(0.4173 -0.9088 0.9088 0.4173 -163.3727 509.1078)" class="st0" cx="315.32" cy="381.95" rx="9.5" ry="1.78"/>
		
			<ellipse transform="matrix(0.1133 -0.9936 0.9936 0.1133 -112.477 629.4269)" class="st0" cx="296.41" cy="377.73" rx="9.5" ry="1.78"/>
		
			<ellipse transform="matrix(0.8624 -0.5063 0.5063 0.8624 -158.3138 222.4589)" class="st0" cx="329.98" cy="402.4" rx="9.5" ry="1.78"/>
		
			<ellipse transform="matrix(0.8624 -0.5063 0.5063 0.8624 -170.9916 226.0219)" class="st0" cx="330.2" cy="427.49" rx="9.5" ry="1.78"/>
		
			<ellipse transform="matrix(0.9088 -0.4173 0.4173 0.9088 -135.9238 149.3412)" class="st0" cx="273.57" cy="385.52" rx="1.78" ry="9.5"/>
		
			<ellipse transform="matrix(0.5063 -0.8624 0.8624 0.5063 -222.261 423.6921)" class="st0" cx="258.91" cy="405.96" rx="1.78" ry="9.5"/>
		
			<ellipse transform="matrix(0.5063 -0.8624 0.8624 0.5063 -244.0103 435.8984)" class="st0" cx="258.69" cy="431.06" rx="1.78" ry="9.5"/>
	</g>
</g>
</svg>
