<?xml version="1.0" encoding="utf-8"?>
<!-- Generator: Adobe Illustrator 27.9.0, SVG Export Plug-In . SVG Version: 6.00 Build 0)  -->
<svg version="1.1" id="Layer_1" xmlns="http://www.w3.org/2000/svg" xmlns:xlink="http://www.w3.org/1999/xlink" x="0px" y="0px"
	 viewBox="0 0 595.28 841.89" style="enable-background:new 0 0 595.28 841.89;" xml:space="preserve">
<style type="text/css">
	.st0{fill:#DAD9D9;}
	.st1{fill:#FFFFFF;stroke:#000000;stroke-miterlimit:10;}
	.st2{fill:none;stroke:#000000;stroke-miterlimit:10;}
</style>
<g>
	<circle cx="298" cy="420.88" r="71"/>
	<path class="st0" d="M311.69,403.3c0,0-2.9,0.83-6.63,4.15s-6.04,11.72-6.04,11.72l2.8,0.58c0,0-9.19,16.31-11.68,22.94l1.37,0.93
		c0,0-4.68,5.28-5.93,8.81c-1.24,3.52-4.56,15.96-4.56,15.96h1.36l-4.67,8.71h-6.53c0,0,6.95-18.66,7.36-19.9
		c0.41-1.24-0.41-5.39-0.41-5.39l1.98-0.69c0,0,8.17-14.72,8.07-16.97s4.9-13.31,4.9-13.31s1.27-4.91,0-7.5
		c0,0,6.32-1.42,5.64-11.33C298.69,402.02,303.81,406.21,311.69,403.3z"/>
	<path class="st1" d="M292.35,423.96c0.19,0.22,0.33,0.47,0.54,0.66c0.61,0.57,1.57,0.5,2.38,0.33s1.7-0.39,2.46-0.03
		c0.99,0.47,1.3,1.74,1.28,2.84c-0.02,0.92-0.2,1.86-0.68,2.64c-0.49,0.78-1.31,1.39-2.23,1.44c-1.66,0.1-3.03-1.5-4.69-1.5
		c-0.72,0-1.4,0.31-2.1,0.44c-0.71,0.13-1.55,0.03-1.95-0.57c-0.24-0.36-0.26-0.82-0.25-1.25c0.03-1.45,0.27-3.28,1.21-4.44
		C289.32,423.28,291.11,422.52,292.35,423.96z"/>
	<g>
		<path class="st1" d="M298.63,425.63c0,0,17.71-8.09,26.1,0.92c8.4,9.01-6.75,15.11-9.24,15.03c-2.49-0.09-17.34-2.27-18.33-9.77
			C297.17,431.8,300.23,427.34,298.63,425.63z"/>
		<path class="st1" d="M318.66,440.73c0,0-2.98-11.33-21.04-7.33"/>
	</g>
	<g>
		<path class="st1" d="M289.33,423.44c0,0-11.13-15.97-22.94-12.49c-11.81,3.49-1.87,16.45,0.31,17.64
			c2.19,1.19,16.09,6.87,20.75,0.91C287.45,429.5,287.08,424.11,289.33,423.44z"/>
		<path class="st1" d="M264.4,426.27c0,0,8.32-8.24,21.85,4.39"/>
	</g>
	<path class="st1" d="M287.22,430.31c0,0-8.45,3.68-12.18,16.53l-10.37,9.54c0,0,4.87-20.73,22.55-29.64V430.31z"/>
	<path class="st1" d="M297.07,432.24c0,0,5.17,7.63,1.43,20.48l3.65,13.6c0,0,6.99-20.12-3.16-37.11L297.07,432.24z"/>
	<path class="st1" d="M312.02,372.2c-2.03-0.57-4.4,0.56-5.23,2.5c-0.18,0.43-0.3,0.9-0.23,1.36c0.17,1.11,1.29,1.79,2.34,2.2
		c1.95,0.77,4.06,1.15,6.16,1.13c1.51-0.02,3.11-0.29,4.24-1.3c1.05-0.95,1.51-2.42,1.49-3.84s-0.49-2.79-1.05-4.09
		c-0.44-1.03-0.95-2.06-1.73-2.88c-1.3-1.38-3.2-2.03-5.06-2.33c-2.68-0.43-5.46-0.21-8.05,0.62c-6.04,1.94-10.7,7.25-12.59,13.31
		s-1.18,12.74,1.18,18.63c0.5,1.24,1.08,2.47,2.01,3.43c1.83,1.89,4.64,2.38,7.24,2.77c2.31,0.35,4.66,0.69,6.98,0.41
		c1.57-0.19,3.09-0.67,4.53-1.31c7.8-3.41,13.28-11.58,13.47-20.1c0.05-2.06-0.23-4.23-1.42-5.92s-3.51-2.71-5.4-1.89"/>
	<path class="st2" d="M297.9,370.28c-1.37,1.89-0.94,4.51-0.31,6.75c0.8,2.85,1.83,5.64,3.08,8.33c0.47,1.02,1.02,2.07,1.94,2.71
		c1.09,0.76,2.51,0.81,3.83,0.84c3.04,0.06,6.38,0.02,8.69-1.95"/>
	<path class="st2" d="M306.52,365.45c2.41-0.06,4.82,0.37,7.06,1.26c1.11,0.44,2.23,1.05,2.83,2.09c0.6,1.02,0.58,2.28,0.45,3.46
		c-0.05,0.44-0.11,0.9-0.33,1.29s-0.63,0.7-1.07,0.68c-0.45-0.02-0.86-0.48-0.73-0.9"/>
	<path class="st2" d="M311.87,372.19c0.84-0.02,1.68,0.18,2.41,0.59c0.14,0.08,0.28,0.17,0.37,0.3s0.13,0.31,0.06,0.46"/>
</g>
</svg>
