<?xml version="1.0" encoding="utf-8"?>
<!-- Generator: Adobe Illustrator 27.9.0, SVG Export Plug-In . SVG Version: 6.00 Build 0)  -->
<svg version="1.1" id="Layer_1" xmlns="http://www.w3.org/2000/svg" xmlns:xlink="http://www.w3.org/1999/xlink" x="0px" y="0px"
	 viewBox="0 0 595.28 841.89" style="enable-background:new 0 0 595.28 841.89;" xml:space="preserve">
<style type="text/css">
	.st0{fill:#FFFFFF;}
	.st1{fill:#939598;}
</style>
<g>
	<circle cx="298" cy="420.88" r="72.5"/>
	<g>
		<path class="st0" d="M294.1,413.5h7.05c0,0,2.12-0.73,1.39-2.2s-2.25,0.37-3.14,0s0.21-2.2,0.21-2.2h-3.85c0,0,1.1,1.84,0.21,2.2
			s-2.41-1.47-3.14,0c-0.73,1.47,1.39,2.2,1.39,2.2h7.05"/>
		<path class="st0" d="M299.61,409.1c0,0,16.15-5.87,18.35-20.92s-2.57-24.96-13.95-26.06c-11.38-1.1-21.29,12.85-20.92,25.33
			c0.37,12.48,4.4,20.56,12.66,21.66H299.61z"/>
		<path class="st0" d="M291.49,488.65c1.81-2.92,0.44-6.67,0.16-10.1c-0.29-3.61,0.72-7.23,2.21-10.53c0.94-2.09,2.09-4.1,2.82-6.27
			c1.69-5.06,1.01-10.64-0.56-15.74c-0.77-2.5-1.75-4.94-2.17-7.52c-0.99-6.03,1.15-12.13,3.78-17.65c1.07-2.24,2.44-4.9,1.95-7.33
			h-4.11c1.04,0.96,0.76,2.8,0.39,4.17c-0.37,1.37-1.15,2.59-1.75,3.88c-0.64,1.39-1.05,2.88-1.46,4.35
			c-0.74,2.69-1.49,5.39-1.75,8.16c-0.79,8.56,3.15,17.1,1.98,25.61c-0.94,6.86-5.14,13.18-4.82,20.1c0.15,3.18,1.24,6.48,0.09,9.44
			C289.23,489.23,290.53,488.64,291.49,488.65z"/>
		<g>
			<g>
				<path class="st1" d="M297.18,366.81c1.29,0,1.29-2,0-2C295.89,364.81,295.89,366.81,297.18,366.81L297.18,366.81z"/>
			</g>
		</g>
		<g>
			<g>
				<path class="st1" d="M293.31,366.95c-1.88,2.08-3.88,4.1-5.59,6.32c-1.61,2.1-2.52,4.57-2.64,7.22c-0.06,1.29,1.94,1.28,2,0
					c0.11-2.36,1.01-4.53,2.49-6.36c1.62-2,3.43-3.86,5.15-5.77C295.59,367.41,294.18,365.99,293.31,366.95L293.31,366.95z"/>
			</g>
		</g>
		<g>
			<g>
				<path class="st1" d="M285.51,387.15c1.29,0,1.29-2,0-2C284.22,385.15,284.22,387.15,285.51,387.15L285.51,387.15z"/>
			</g>
		</g>
		<g>
			<g>
				<path class="st1" d="M312.36,370.14c0.12,1.24,0.24,2.48,0.36,3.72c0.11,1.09,0.1,2.26,0.36,3.33c0.43,1.76,2.36,2.24,2.79,4
					c0.48,2.01-0.61,3.95-1.57,5.63c-1.21,2.11-2.45,4.21-3.68,6.31c-0.65,1.11,1.08,2.12,1.73,1.01c1.26-2.16,2.53-4.31,3.78-6.48
					c0.99-1.74,1.95-3.66,1.85-5.71c-0.09-1.91-0.94-3.15-2.33-4.35c-0.95-0.82-0.78-2.32-0.9-3.49c-0.13-1.32-0.25-2.64-0.38-3.96
					C314.24,368.87,312.23,368.86,312.36,370.14L312.36,370.14z"/>
			</g>
		</g>
		<g>
			<g>
				<path class="st1" d="M307.01,402.48c1.29,0,1.29-2,0-2C305.72,400.48,305.72,402.48,307.01,402.48L307.01,402.48z"/>
			</g>
		</g>
		<g>
			<g>
				<path class="st1" d="M303.34,404.29c-1.55,0.14-3.08,0.39-4.59,0.77c-0.51,0.13-0.86,0.72-0.7,1.23
					c0.17,0.52,0.69,0.84,1.23,0.7c0.7-0.18,1.4-0.33,2.11-0.45c0.16-0.03,0.33-0.05,0.49-0.08c0.1-0.01,0.19-0.03,0.29-0.04
					c0.04-0.01,0.08-0.01,0.12-0.02c-0.13,0.02-0.14,0.02-0.02,0c0.36-0.04,0.71-0.08,1.07-0.11c0.52-0.05,1.03-0.43,1-1
					C304.32,404.79,303.9,404.24,303.34,404.29L303.34,404.29z"/>
			</g>
		</g>
		<g>
			<g>
				<path class="st1" d="M299.18,413.82c1.29,0,1.29-2,0-2C297.89,411.82,297.89,413.82,299.18,413.82L299.18,413.82z"/>
			</g>
		</g>
		<g>
			<g>
				<path class="st1" d="M294.51,426.49c0.64,0,0.64-1,0-1C293.87,425.49,293.86,426.49,294.51,426.49L294.51,426.49z"/>
			</g>
		</g>
		<g>
			<g>
				<path class="st1" d="M292.52,432.99c-0.07,2.06-0.01,4,0.85,5.91c0.9,1.98,1.6,3.91,1.78,6.09c0.05,0.64,1.06,0.64,1,0
					c-0.17-2.02-0.69-3.96-1.55-5.8c-0.46-0.98-0.87-1.92-1.02-3.01c-0.14-1.06-0.1-2.13-0.07-3.19
					C293.55,432.35,292.55,432.35,292.52,432.99L292.52,432.99z"/>
			</g>
		</g>
		<g>
			<g>
				<path class="st1" d="M296.18,452.16c0.64,0,0.64-1,0-1C295.53,451.16,295.53,452.16,296.18,452.16L296.18,452.16z"/>
			</g>
		</g>
		<g>
			<g>
				<path class="st1" d="M290.47,476.88c-1.19,3.1,0.33,6.32,0.43,9.46c0.02,0.64,1.02,0.64,1,0c-0.1-3.03-1.61-6.22-0.46-9.2
					C291.66,476.55,290.7,476.29,290.47,476.88L290.47,476.88z"/>
			</g>
		</g>
	</g>
</g>
</svg>
